<svg width="256" height="256" viewBox="0 0 256 256" fill="none" xmlns="http://www.w3.org/2000/svg" role="img" aria-label="Gemini Image Editor logo">
  <defs>
    <linearGradient id="grad" x1="0" y1="0" x2="1" y2="1">
      <stop offset="0%" stop-color="#6366F1"/>
      <stop offset="50%" stop-color="#8B5CF6"/>
      <stop offset="100%" stop-color="#A855F7"/>
    </linearGradient>
    <radialGradient id="glow" cx="50%" cy="40%" r="60%">
      <stop offset="0%" stop-color="#FFFFFF" stop-opacity="0.22"/>
      <stop offset="60%" stop-color="#FFFFFF" stop-opacity="0.06"/>
      <stop offset="100%" stop-color="#FFFFFF" stop-opacity="0"/>
    </radialGradient>
    <filter id="soft" x="-50%" y="-50%" width="200%" height="200%">
      <feGaussianBlur stdDeviation="6" result="blur"/>
      <feMerge>
        <feMergeNode in="blur"/>
        <feMergeNode in="SourceGraphic"/>
      </feMerge>
    </filter>
    <clipPath id="rounded">
      <rect x="8" y="8" width="240" height="240" rx="40" ry="40"/>
    </clipPath>
  </defs>

  <!-- Background tile with subtle glow (works on both dark/light) -->
  <rect x="8" y="8" width="240" height="240" rx="40" ry="40" fill="#0B1020" opacity="0.85"/>
  <rect x="8" y="8" width="240" height="240" rx="40" ry="40" fill="url(#glow)"/>

  <g clip-path="url(#rounded)">
    <!-- Geometric crystal G -->
    <g transform="translate(36,36) scale(0.88)" filter="url(#soft)">
      <!-- Outer crystal ring -->
      <path d="M160 64c0-35.346-28.654-64-64-64S32 28.654 32 64v64c0 35.346 28.654 64 64 64 24.853 0 46.5-13.87 57.813-34H128c-17.673 0-32-14.327-32-32V96h92a63.7 63.7 0 0 0 4-16V64z" fill="url(#grad)"/>
      <!-- Inner cut (counter form of G) -->
      <path d="M64 64c0-17.673 14.327-32 32-32s32 14.327 32 32v16h-40v16h64V64c0-35.346-28.654-64-64-64S24 28.654 24 64v64c0 35.346 28.654 64 64 64 14.9 0 28.627-5.066 39.5-13.6l-12.5-14.8C105.7 172.7 96.5 176 88 176c-17.673 0-32-14.327-32-32V64z" fill="#FFFFFF" opacity="0.08"/>
      <!-- Facets -->
      <path d="M128 0L96 32l32 32 32-32-32-32z" fill="#FFFFFF" opacity="0.08"/>
      <path d="M64 96l24 24-24 24-24-24 24-24z" fill="#FFFFFF" opacity="0.06"/>
    </g>

    <!-- Sparkles -->
    <g fill="url(#grad)">
      <path d="M208 52l4 10 10 4-10 4-4 10-4-10-10-4 10-4 4-10z" opacity="0.9"/>
      <path d="M56 188l3 7 7 3-7 3-3 7-3-7-7-3 7-3 3-7z" opacity="0.75"/>
      <circle cx="196" cy="188" r="4" opacity="0.8"/>
    </g>
  </g>

  <!-- Border stroke (very subtle) -->
  <rect x="8.5" y="8.5" width="239" height="239" rx="40" ry="40" stroke="#FFFFFF" stroke-opacity="0.08" fill="none"/>
</svg>
