<svg width="1200" height="630" viewBox="0 0 1200 630" xmlns="http://www.w3.org/2000/svg" role="img" aria-label="Nano Banana Image Editor OG Cover">
  <defs>
    <linearGradient id="g" x1="0" y1="0" x2="1" y2="1">
      <stop offset="0%" stop-color="#0B1020"/>
      <stop offset="60%" stop-color="#20164B"/>
      <stop offset="100%" stop-color="#2B1B5E"/>
    </linearGradient>
    <linearGradient id="brand" x1="0" y1="0" x2="1" y2="1">
      <stop offset="0%" stop-color="#6366F1"/>
      <stop offset="50%" stop-color="#8B5CF6"/>
      <stop offset="100%" stop-color="#A855F7"/>
    </linearGradient>
    <filter id="blur"><feGaussianBlur stdDeviation="60"/></filter>
  </defs>

  <rect width="1200" height="630" fill="url(#g)"/>
  <circle cx="150" cy="100" r="140" fill="#8B5CF6" opacity="0.2" filter="url(#blur)"/>
  <circle cx="1100" cy="560" r="180" fill="#6366F1" opacity="0.2" filter="url(#blur)"/>

  <!-- Logo tile -->
  <g transform="translate(80,80)">
    <rect x="0" y="0" width="120" height="120" rx="24" fill="#0B1020" stroke="white" stroke-opacity="0.1"/>
    <g transform="translate(12,12) scale(0.42)">
      <rect x="8" y="8" width="240" height="240" rx="40" ry="40" fill="#0B1020" opacity="0.85"/>
      <path d="M160 64c0-35.346-28.654-64-64-64S32 28.654 32 64v64c0 35.346 28.654 64 64 64 24.853 0 46.5-13.87 57.813-34H128c-17.673 0-32-14.327-32-32V96h92a63.7 63.7 0 0 0 4-16V64z" fill="url(#brand)"/>
      <path d="M64 64c0-17.673 14.327-32 32-32s32 14.327 32 32v16h-40v16h64V64c0-35.346-28.654-64-64-64S24 28.654 24 64v64c0 35.346 28.654 64 64 64 14.9 0 28.627-5.066 39.5-13.6l-12.5-14.8C105.7 172.7 96.5 176 88 176c-17.673 0-32-14.327-32-32V64z" fill="#FFFFFF" opacity="0.08"/>
    </g>
  </g>

  <!-- Title and subtitle -->
  <g transform="translate(240,120)">
    <text x="0" y="0" fill="white" font-family="Inter, ui-sans-serif, system-ui, -apple-system" font-weight="800" font-size="56">Nano Banana Image Editor</text>
    <text x="0" y="56" fill="#C7C9F7" font-family="Inter, ui-sans-serif, system-ui, -apple-system" font-weight="500" font-size="24">AI Image Generation & Editing (Gemini 2.5 Flash Image)</text>
  </g>

  <!-- Accent line -->
  <rect x="240" y="190" width="400" height="4" rx="2" fill="url(#brand)"/>

  <!-- Keywords -->
  <g transform="translate(240,250)" fill="#E6E7FF" font-family="Inter, ui-sans-serif, system-ui, -apple-system" font-size="18">
    <text y="0">Subject Consistency • Multi‑image Blending • Natural‑language Edits</text>
  </g>
</svg>
